<svg width="131" height="45" viewBox="0 0 131 45" fill="none" xmlns="http://www.w3.org/2000/svg">
<path d="M21.4053 44.9999C21.7248 45.004 22.0362 44.8745 22.2667 44.6481C22.4972 44.4216 22.6266 44.1103 22.6266 43.7867V1.22126C22.6266 0.545939 22.0766 0 21.4053 0C20.73 0 20.18 0.545921 20.18 1.22126V43.7867C20.18 44.1103 20.3094 44.4216 20.5399 44.6481C20.7705 44.8745 21.0818 45.004 21.4053 44.9999Z" fill="#BCDA3C"/>
<path d="M16.3627 38.5504C16.6903 38.5545 17.0057 38.4291 17.2403 38.1986C17.4708 37.9722 17.6042 37.6567 17.6042 37.3292V7.67921C17.6042 7.00389 17.0583 6.45795 16.383 6.45795C15.7076 6.45795 15.1617 7.00387 15.1617 7.67921V37.3292C15.1617 37.9964 15.6955 38.5383 16.3627 38.5504Z" fill="#BCDA3C"/>
<path d="M11.3119 33.0347C11.6313 33.0347 11.9427 32.9094 12.1732 32.6829C12.4037 32.4524 12.5331 32.1451 12.5331 31.8216V13.1875C12.4725 12.5607 11.9468 12.0795 11.3159 12.0795C10.685 12.0795 10.1553 12.5607 10.0987 13.1875V31.8216C10.0987 32.141 10.2281 32.4524 10.4545 32.6789C10.681 32.9053 10.9884 33.0347 11.3119 33.0347Z" fill="#BCDA3C"/>
<path d="M6.26927 29.9974C6.59278 29.9974 6.90416 29.872 7.13061 29.6415C7.36112 29.411 7.49052 29.0996 7.49052 28.7761V16.2323C7.49052 15.5569 6.9446 15.011 6.26926 15.011C5.59394 15.011 5.048 15.5569 5.048 16.2323V28.7761C5.048 29.4514 5.59393 29.9974 6.26927 29.9974Z" fill="#BCDA3C"/>
<path d="M1.22667 27.4942C1.55018 27.4942 1.86156 27.3648 2.08801 27.1343C2.31447 26.9078 2.43983 26.5964 2.43983 26.2729V18.7352C2.46813 18.3956 2.35491 18.0559 2.1244 17.8011C1.8939 17.5464 1.56635 17.4008 1.22263 17.4008C0.8789 17.4008 0.551343 17.5464 0.32085 17.8011C0.0863082 18.0559 -0.0269255 18.3956 0.00542538 18.7352V26.2729C0.00542538 26.9483 0.551333 27.4942 1.22667 27.4942Z" fill="#BCDA3C"/>
<path d="M26.4438 38.5504C26.7673 38.5504 27.0787 38.421 27.3092 38.1946C27.5357 37.9641 27.6651 37.6527 27.6651 37.3292V7.6792C27.6974 7.33547 27.5842 6.99983 27.3537 6.74507C27.1191 6.49031 26.7916 6.34473 26.4519 6.34473C26.1082 6.34473 25.7806 6.4903 25.5461 6.74507C25.3156 6.99983 25.2024 7.33547 25.2347 7.6792V37.3292C25.2347 38.0005 25.7725 38.5464 26.4438 38.5504Z" fill="#BCDA3C"/>
<path d="M31.4988 33.0347C31.8183 33.0347 32.1297 32.9094 32.3602 32.6829C32.5907 32.4524 32.7201 32.1451 32.7201 31.8216V13.1875C32.7201 12.5121 32.1701 11.9662 31.4988 11.9662C30.8235 11.9662 30.2735 12.5121 30.2735 13.1875V31.8216C30.2735 32.1451 30.4029 32.4524 30.6334 32.6829C30.8639 32.9094 31.1753 33.0347 31.4988 33.0347Z" fill="#BCDA3C"/>
<path d="M36.5373 29.9974C36.8608 29.9974 37.1722 29.872 37.4027 29.6415C37.6291 29.411 37.7585 29.0996 37.7585 28.7761V16.2323C37.7585 15.5569 37.2126 15.011 36.5373 15.011C35.862 15.011 35.316 15.5569 35.316 16.2323V28.7761C35.316 29.4514 35.8619 29.9974 36.5373 29.9974Z" fill="#BCDA3C"/>
<path d="M41.5799 27.4942C41.9034 27.4942 42.2148 27.3648 42.4453 27.1343C42.6717 26.9078 42.8011 26.5964 42.8011 26.2729V18.7352C42.8335 18.3956 42.7203 18.0559 42.4857 17.8011C42.2552 17.5464 41.9277 17.4008 41.5839 17.4008C41.2402 17.4008 40.9126 17.5464 40.6822 17.8011C40.4517 18.0559 40.3384 18.3956 40.3667 18.7352V26.2729C40.3667 26.9442 40.9086 27.4902 41.5799 27.4942Z" fill="#BCDA3C"/>
<path d="M56.8477 27.0299C57.372 27.0299 57.6341 26.7677 57.6341 26.2434V19.1651C57.6341 18.8904 57.7839 18.7531 58.0836 18.7531H62.8024C64.7499 18.7531 66.2605 18.2226 67.3341 17.1614C68.4077 16.1003 68.9445 14.596 68.9445 12.6485V9.05318C68.9445 7.1057 68.4077 5.6014 67.3341 4.54027C66.2605 3.47915 64.7499 2.94858 62.8024 2.94858H53.6643C53.14 2.94858 52.8778 3.21074 52.8778 3.73506V26.2434C52.8778 26.7677 53.14 27.0299 53.6643 27.0299H56.8477ZM58.0461 14.596C57.7715 14.596 57.6341 14.4587 57.6341 14.184V7.48021C57.6341 7.20557 57.7715 7.06825 58.0461 7.06825H62.016C62.8149 7.06825 63.3767 7.23678 63.7013 7.57384C64.0259 7.91091 64.1881 8.47892 64.1881 9.27789V12.4238C64.1881 13.1978 64.0259 13.7533 63.7013 14.0904C63.3767 14.4275 62.8149 14.596 62.016 14.596H58.0461Z" fill="#262626"/>
<path d="M78.8166 27.0299C79.5906 27.0299 80.3271 26.8614 81.0262 26.5243C81.7253 26.1872 82.2122 25.6816 82.4868 25.0075H82.6366V26.2434C82.6366 26.7677 82.8988 27.0299 83.4231 27.0299H86.5691C87.1183 27.0299 87.393 26.7677 87.393 26.2434V8.71611C87.393 8.19179 87.1183 7.92963 86.5691 7.92963H83.4231C82.8988 7.92963 82.6366 8.19179 82.6366 8.71611V20.0639C82.6366 21.9615 81.7753 22.9102 80.0525 22.9102H78.6668C77.8928 22.9102 77.3373 22.7417 77.0002 22.4046C76.6631 22.0676 76.4946 21.4996 76.4946 20.7006V8.71611C76.4946 8.19179 76.2324 7.92963 75.7081 7.92963H72.5247C72.0004 7.92963 71.7383 8.19179 71.7383 8.71611V20.9253C71.7383 22.8977 72.2314 24.4083 73.2176 25.4569C74.2038 26.5056 75.6582 27.0299 77.5807 27.0299H78.8166Z" fill="#262626"/>
<path d="M95.2427 27.0299C95.767 27.0299 96.0292 26.7677 96.0292 26.2434V1.48797C96.0292 0.963652 95.767 0.701491 95.2427 0.701491H92.0593C91.535 0.701491 91.2729 0.963652 91.2729 1.48797V26.2434C91.2729 26.7677 91.535 27.0299 92.0593 27.0299H95.2427Z" fill="#262626"/>
<path d="M107.138 27.0299C111.058 27.0299 113.018 25.3571 113.018 22.0114C113.018 20.8129 112.755 19.8454 112.231 19.1089C111.707 18.3724 110.796 17.6545 109.497 16.9554L105.715 14.7084C104.641 14.1341 104.104 13.5723 104.104 13.023V12.8358C104.104 12.2116 104.716 11.8995 105.939 11.8995H111.145C111.445 11.8995 111.644 11.8433 111.744 11.731C111.844 11.6186 111.894 11.4251 111.894 11.1505V8.71611C111.894 8.19179 111.644 7.92963 111.145 7.92963H104.891C102.918 7.92963 101.47 8.3416 100.546 9.16553C99.6225 9.98946 99.1606 11.2753 99.1606 13.023C99.1606 14.1965 99.4602 15.1578 100.059 15.9068C100.659 16.6558 101.595 17.3549 102.868 18.0041L106.576 20.0639C107.6 20.6132 108.111 21.1875 108.111 21.7867V21.9739C108.111 22.723 107.5 23.0975 106.276 23.0975H100.022C99.7223 23.0975 99.5226 23.1537 99.4227 23.266C99.3229 23.3784 99.2729 23.5719 99.2729 23.8465V26.2434C99.2729 26.7677 99.5226 27.0299 100.022 27.0299H107.138Z" fill="#262626"/>
<path d="M129.968 27.0299C130.268 27.0299 130.474 26.9737 130.586 26.8614C130.698 26.749 130.755 26.5555 130.755 26.2809V23.8091C130.755 23.2598 130.492 22.9851 129.968 22.9851H122.403C121.604 22.9851 121.036 22.8166 120.699 22.4795C120.362 22.1425 120.193 21.5869 120.193 20.8129V19.989C120.193 19.7144 120.343 19.577 120.643 19.577H130.043C130.567 19.577 130.829 19.3149 130.829 18.7906V14.0342C130.829 12.0618 130.293 10.5512 129.219 9.50259C128.145 8.45395 126.622 7.92963 124.65 7.92963H121.691C119.719 7.92963 118.196 8.45395 117.122 9.50259C116.049 10.5512 115.512 12.0618 115.512 14.0342V20.9253C115.512 22.8977 116.049 24.4083 117.122 25.4569C118.196 26.5056 119.719 27.0299 121.691 27.0299H129.968ZM120.643 16.3937C120.368 16.3937 120.231 16.2563 120.231 15.9817V14.184C120.231 13.3851 120.393 12.8233 120.718 12.4987C121.042 12.1741 121.604 12.0118 122.403 12.0118H123.976C124.775 12.0118 125.337 12.1741 125.661 12.4987C125.986 12.8233 126.148 13.3851 126.148 14.184V15.9817C126.148 16.2563 126.011 16.3937 125.736 16.3937H120.643Z" fill="#262626"/>
<path d="M107.5 38.2106V41.8824H106.562V35.7786H107.468V36.7324H107.548C107.691 36.4224 107.908 36.1734 108.199 35.9853C108.491 35.7945 108.867 35.6992 109.328 35.6992C109.741 35.6992 110.103 35.7839 110.413 35.9535C110.723 36.1204 110.964 36.3747 111.136 36.7165C111.308 37.0556 111.394 37.4847 111.394 38.004V41.8824H110.456V38.0676C110.456 37.5881 110.332 37.2145 110.083 36.947C109.834 36.6767 109.492 36.5416 109.058 36.5416C108.758 36.5416 108.491 36.6065 108.255 36.7363C108.022 36.8661 107.838 37.0556 107.703 37.3046C107.567 37.5536 107.5 37.8556 107.5 38.2106Z" fill="#262626"/>
<path d="M102.365 42.0096C101.814 42.0096 101.33 41.8785 100.914 41.6162C100.501 41.3539 100.178 40.987 99.9446 40.5154C99.7142 40.0439 99.5989 39.4928 99.5989 38.8623C99.5989 38.2265 99.7142 37.6715 99.9446 37.1973C100.178 36.7231 100.501 36.3549 100.914 36.0926C101.33 35.8303 101.814 35.6992 102.365 35.6992C102.916 35.6992 103.398 35.8303 103.811 36.0926C104.227 36.3549 104.55 36.7231 104.781 37.1973C105.014 37.6715 105.13 38.2265 105.13 38.8623C105.13 39.4928 105.014 40.0439 104.781 40.5154C104.55 40.987 104.227 41.3539 103.811 41.6162C103.398 41.8785 102.916 42.0096 102.365 42.0096ZM102.365 41.1671C102.783 41.1671 103.128 41.0598 103.398 40.8453C103.668 40.6307 103.868 40.3485 103.998 39.9988C104.128 39.6491 104.193 39.2703 104.193 38.8623C104.193 38.4544 104.128 38.0742 103.998 37.7218C103.868 37.3695 103.668 37.0847 103.398 36.8675C103.128 36.6502 102.783 36.5416 102.365 36.5416C101.946 36.5416 101.602 36.6502 101.331 36.8675C101.061 37.0847 100.861 37.3695 100.731 37.7218C100.602 38.0742 100.537 38.4544 100.537 38.8623C100.537 39.2703 100.602 39.6491 100.731 39.9988C100.861 40.3485 101.061 40.6307 101.331 40.8453C101.602 41.0598 101.946 41.1671 102.365 41.1671Z" fill="#262626"/>
<path d="M95.5297 44.2985C95.0767 44.2985 94.6873 44.2402 94.3614 44.1237C94.0356 44.0097 93.764 43.8587 93.5468 43.6706C93.3322 43.4852 93.1613 43.2865 93.0342 43.0746L93.7812 42.55C93.866 42.6613 93.9733 42.7885 94.1031 42.9315C94.2329 43.0772 94.4104 43.2031 94.6356 43.309C94.8634 43.4176 95.1615 43.472 95.5297 43.472C96.0225 43.472 96.4291 43.3527 96.7497 43.1143C97.0702 42.8759 97.2305 42.5023 97.2305 41.9937V40.7539H97.151C97.0822 40.8651 96.9841 41.0029 96.857 41.1671C96.7325 41.3287 96.5523 41.4731 96.3165 41.6003C96.0834 41.7248 95.7682 41.7871 95.3708 41.7871C94.878 41.7871 94.4356 41.6705 94.0435 41.4374C93.6541 41.2042 93.3455 40.8651 93.1176 40.4201C92.8924 39.975 92.7798 39.4346 92.7798 38.7987C92.7798 38.1735 92.8898 37.6291 93.1097 37.1655C93.3296 36.6992 93.6355 36.339 94.0276 36.0846C94.4197 35.8277 94.8727 35.6992 95.3867 35.6992C95.784 35.6992 96.0993 35.7654 96.3324 35.8979C96.5682 36.0277 96.7484 36.176 96.8729 36.3429C97 36.5072 97.0981 36.6423 97.1669 36.7483H97.2623V35.7786H98.1683V42.0573C98.1683 42.5818 98.0491 43.0083 97.8107 43.3368C97.5749 43.668 97.257 43.9104 96.857 44.0641C96.4596 44.2204 96.0172 44.2985 95.5297 44.2985ZM95.4979 40.9446C95.8741 40.9446 96.192 40.8585 96.4517 40.6863C96.7113 40.5141 96.9086 40.2664 97.0437 39.9432C97.1789 39.62 97.2464 39.2332 97.2464 38.7829C97.2464 38.3431 97.1802 37.955 97.0477 37.6185C96.9153 37.2821 96.7192 37.0185 96.4596 36.8277C96.2 36.637 95.8794 36.5416 95.4979 36.5416C95.1006 36.5416 94.7694 36.6423 94.5045 36.8436C94.2422 37.045 94.0448 37.3152 93.9124 37.6543C93.7826 37.9934 93.7177 38.3696 93.7177 38.7829C93.7177 39.2067 93.7839 39.5816 93.9164 39.9074C94.0515 40.2306 94.2502 40.485 94.5124 40.6704C94.7773 40.8532 95.1059 40.9446 95.4979 40.9446Z" fill="#262626"/>
<path d="M88.5567 42.0255C88.1699 42.0255 87.8189 41.9526 87.5036 41.8069C87.1884 41.6586 86.938 41.4453 86.7526 41.1671C86.5671 40.8863 86.4744 40.5472 86.4744 40.1498C86.4744 39.8001 86.5433 39.5167 86.681 39.2994C86.8188 39.0796 87.0029 38.9074 87.2334 38.7829C87.4639 38.6583 87.7182 38.5656 87.9964 38.5047C88.2772 38.4411 88.5593 38.3908 88.8428 38.3537C89.2137 38.306 89.5144 38.2702 89.7448 38.2464C89.978 38.2199 90.1475 38.1762 90.2535 38.1153C90.3621 38.0543 90.4164 37.9484 90.4164 37.7973V37.7656C90.4164 37.3735 90.3091 37.0688 90.0945 36.8516C89.8826 36.6343 89.5607 36.5257 89.1289 36.5257C88.6812 36.5257 88.3302 36.6237 88.0758 36.8198C87.8215 37.0158 87.6427 37.2251 87.5394 37.4477L86.6492 37.1297C86.8082 36.7589 87.0201 36.4701 87.2851 36.2635C87.5526 36.0542 87.844 35.9085 88.1593 35.8263C88.4772 35.7416 88.7898 35.6992 89.0971 35.6992C89.2932 35.6992 89.5183 35.723 89.7727 35.7707C90.0296 35.8157 90.2773 35.9098 90.5158 36.0528C90.7568 36.1959 90.9569 36.4118 91.1158 36.7006C91.2748 36.9893 91.3542 37.3761 91.3542 37.8609V41.8824H90.4164V41.0559H90.3687C90.3052 41.1883 90.1992 41.3301 90.0508 41.4811C89.9025 41.6321 89.7051 41.7606 89.4587 41.8665C89.2124 41.9725 88.9117 42.0255 88.5567 42.0255ZM88.6997 41.183C89.0706 41.183 89.3832 41.1102 89.6376 40.9645C89.8945 40.8188 90.0879 40.6307 90.2177 40.4002C90.3502 40.1697 90.4164 39.9273 90.4164 39.673V38.8146C90.3767 38.8623 90.2893 38.906 90.1541 38.9458C90.0217 38.9829 89.868 39.016 89.6932 39.0451C89.521 39.0716 89.3528 39.0955 89.1885 39.1167C89.0269 39.1352 88.8958 39.1511 88.7951 39.1643C88.5514 39.1961 88.3235 39.2478 88.1116 39.3193C87.9023 39.3882 87.7328 39.4928 87.603 39.6332C87.4758 39.771 87.4122 39.9591 87.4122 40.1975C87.4122 40.5234 87.5328 40.7698 87.7738 40.9367C88.0176 41.1009 88.3262 41.183 88.6997 41.183Z" fill="#262626"/>
<path d="M82.5969 41.8824V35.7787H83.503V36.7006H83.5666C83.6778 36.3986 83.8792 36.1535 84.1706 35.9654C84.462 35.7773 84.7905 35.6833 85.1561 35.6833C85.225 35.6833 85.3111 35.6846 85.4144 35.6873C85.5177 35.6899 85.5959 35.6939 85.6488 35.6992V36.6529C85.617 36.6449 85.5442 36.633 85.4303 36.6171C85.319 36.5986 85.2011 36.5893 85.0766 36.5893C84.7799 36.5893 84.515 36.6516 84.2818 36.7761C84.0514 36.8979 83.8686 37.0675 83.7335 37.2847C83.601 37.4993 83.5348 37.7444 83.5348 38.0199V41.8824H82.5969Z" fill="#262626"/>
<path d="M78.643 42.0096C78.0549 42.0096 77.5476 41.8798 77.121 41.6202C76.6972 41.3579 76.37 40.9923 76.1395 40.5234C75.9117 40.0518 75.7978 39.5034 75.7978 38.8782C75.7978 38.253 75.9117 37.702 76.1395 37.2251C76.37 36.7456 76.6905 36.3721 77.1012 36.1045C77.5144 35.8343 77.9966 35.6992 78.5476 35.6992C78.8655 35.6992 79.1795 35.7522 79.4894 35.8581C79.7994 35.9641 80.0815 36.1363 80.3358 36.3747C80.5902 36.6105 80.7928 36.9231 80.9438 37.3125C81.0948 37.702 81.1703 38.1815 81.1703 38.7511V39.1484H76.4654V38.3378H80.2166C80.2166 37.9934 80.1478 37.6861 80.01 37.4159C79.8749 37.1456 79.6815 36.9324 79.4298 36.7761C79.1808 36.6198 78.8867 36.5416 78.5476 36.5416C78.1741 36.5416 77.8509 36.6343 77.578 36.8198C77.3078 37.0026 77.0998 37.241 76.9541 37.5351C76.8084 37.8291 76.7356 38.1444 76.7356 38.4808V39.0213C76.7356 39.4822 76.815 39.873 76.974 40.1936C77.1356 40.5115 77.3595 40.7539 77.6456 40.9208C77.9317 41.085 78.2642 41.1671 78.643 41.1671C78.8894 41.1671 79.1119 41.1327 79.3106 41.0638C79.5119 40.9923 79.6855 40.8863 79.8312 40.7459C79.9769 40.6029 80.0895 40.4254 80.1689 40.2134L81.075 40.4678C80.9796 40.7751 80.8193 41.0453 80.5941 41.2784C80.369 41.5089 80.0908 41.689 79.7596 41.8188C79.4285 41.946 79.0563 42.0096 78.643 42.0096Z" fill="#262626"/>
<path d="M69.4714 34.6183V33.7441H75.5752V34.6183H73.0161V41.8824H72.0306V34.6183H69.4714Z" fill="#262626"/>
<path d="M61.0171 44.1713C60.8582 44.1713 60.7165 44.1581 60.5919 44.1316C60.4674 44.1078 60.3813 44.0839 60.3336 44.0601L60.5721 43.2335C60.7999 43.2918 61.0012 43.313 61.1761 43.2971C61.3509 43.2812 61.5059 43.2031 61.641 43.0627C61.7788 42.9249 61.9046 42.701 62.0185 42.3911L62.1934 41.9142L59.9363 35.7786H60.9536L62.6385 40.6426H62.702L64.3869 35.7786H65.4042L62.8133 42.7726C62.6967 43.0878 62.5524 43.3488 62.3802 43.5554C62.208 43.7647 62.0079 43.9197 61.7801 44.0203C61.5549 44.121 61.3006 44.1713 61.0171 44.1713Z" fill="#262626"/>
<path d="M53.2623 41.8824V33.7441H56.1075C56.6744 33.7441 57.142 33.8421 57.5103 34.0381C57.8785 34.2315 58.1527 34.4925 58.3328 34.821C58.513 35.1468 58.6031 35.5084 58.6031 35.9058C58.6031 36.2555 58.5408 36.5443 58.4163 36.7721C58.2944 36.9999 58.1328 37.1801 57.9315 37.3125C57.7328 37.445 57.5169 37.543 57.2838 37.6066V37.6861C57.5328 37.702 57.7831 37.7894 58.0348 37.9484C58.2865 38.1073 58.4971 38.3351 58.6666 38.6318C58.8362 38.9286 58.921 39.2915 58.921 39.7207C58.921 40.1287 58.8282 40.4956 58.6428 40.8214C58.4574 41.1473 58.1646 41.4056 57.7646 41.5963C57.3646 41.7871 56.844 41.8824 56.2029 41.8824H53.2623ZM54.2478 41.0082H56.2029C56.8466 41.0082 57.3036 40.8837 57.5738 40.6347C57.8467 40.383 57.9831 40.0783 57.9831 39.7207C57.9831 39.4452 57.9129 39.1908 57.7725 38.9577C57.6321 38.7219 57.4321 38.5338 57.1725 38.3934C56.9129 38.2504 56.6056 38.1788 56.2506 38.1788H54.2478V41.0082ZM54.2478 37.3205H56.0757C56.3724 37.3205 56.64 37.2622 56.8784 37.1456C57.1195 37.0291 57.3102 36.8648 57.4507 36.6529C57.5937 36.441 57.6652 36.1919 57.6652 35.9058C57.6652 35.5482 57.5407 35.2448 57.2917 34.9958C57.0427 34.7441 56.6479 34.6183 56.1075 34.6183H54.2478V37.3205Z" fill="#262626"/>
</svg>
